<svg xmlns="http://www.w3.org/2000/svg" viewBox="0 0 600 760" fill="none" preserveAspectRatio="none">
  <defs>
    <pattern id="h" width="72" height="58" patternUnits="userSpaceOnUse"><g stroke="#8EB1D1" stroke-width="1.1" opacity=".7"><path d="M0 45Q18 3 36 45Q54 3 72 45"/><circle cx="36" cy="30" r="9"/><path d="M27 30l9-14 9 14-9 10Z"/></g></pattern>
    <pattern id="v" width="58" height="72" patternUnits="userSpaceOnUse"><g stroke="#8EB1D1" stroke-width="1.1" opacity=".7"><path d="M45 0Q3 18 45 36Q3 54 45 72"/><circle cx="30" cy="36" r="9"/><path d="M30 27l14 9-14 9-10-9Z"/></g></pattern>
  </defs>
  <rect x="20" y="20" width="560" height="720" rx="28" stroke="#AFCBE3" stroke-width="1.4"/>
  <rect x="30" y="30" width="540" height="700" rx="22" stroke="#C9DEEF" stroke-width="1" stroke-dasharray="2 4"/>
  <rect x="18" y="0" width="564" height="62" fill="url(#h)"/><rect x="18" y="698" width="564" height="62" fill="url(#h)" transform="rotate(180 300 729)"/>
  <rect x="0" y="50" width="62" height="660" fill="url(#v)"/><rect x="538" y="50" width="62" height="660" fill="url(#v)" transform="rotate(180 569 380)"/>
</svg>
