<svg xmlns="http://www.w3.org/2000/svg" viewBox="0 0 1200 120" fill="none">
  <defs><pattern id="p" width="120" height="110" patternUnits="userSpaceOnUse"><g stroke="#AFCBE3" stroke-width="1.2" opacity=".72"><path d="M0 75Q30 10 60 75Q90 10 120 75"/><path d="M12 75Q30 35 48 75M72 75Q90 35 108 75"/><circle cx="60" cy="58" r="13"/><path d="M60 45c-14-17-29-10-27 5 12-7 20-4 27 8M60 45c14-17 29-10 27 5-12-7-20-4-27 8"/><path d="M0 76h120M0 84h120" stroke-dasharray="2 4"/></g></pattern></defs>
  <rect width="1200" height="105" fill="url(#p)"/><path d="M0 86H1200" stroke="#8EB1D1" opacity=".45"/>
</svg>
