<svg xmlns="http://www.w3.org/2000/svg" viewBox="0 0 1200 120" fill="none">
  <defs><pattern id="p" width="120" height="110" patternUnits="userSpaceOnUse"><g stroke="#AFCBE3" stroke-width="1.2" opacity=".72"><path d="M0 35Q30 100 60 35Q90 100 120 35"/><path d="M12 35Q30 75 48 35M72 35Q90 75 108 35"/><circle cx="60" cy="52" r="13"/><path d="M60 65c-14 17-29 10-27-5 12 7 20 4 27-8M60 65c14 17 29 10 27-5-12 7-20 4-27-8"/><path d="M0 34h120M0 26h120" stroke-dasharray="2 4"/></g></pattern></defs>
  <rect width="1200" height="110" fill="url(#p)"/><path d="M0 25H1200" stroke="#8EB1D1" opacity=".45"/>
</svg>
