<svg xmlns="http://www.w3.org/2000/svg" viewBox="0 0 1200 84" fill="none">
  <g stroke="#8EB1D1" stroke-width="1.35" opacity=".72">
    <path d="M0 42H430M770 42h430"/>
    <path d="M430 42c35-40 70-40 105 0s70 40 105 0 70-40 105 0"/>
    <path d="M466 42c18-22 36-22 54 0s36 22 54 0 36-22 54 0 36 22 54 0 36-22 54 0" opacity=".65"/>
    <path d="M570 42c14-22 46-22 60 0-14 22-46 22-60 0Z"/>
    <circle cx="600" cy="42" r="7"/><circle cx="540" cy="42" r="3"/><circle cx="660" cy="42" r="3"/>
    <path d="M600 35c-8-22-25-25-36-12 18 0 24 8 29 18M607 41c6-19 22-25 35-14-17 2-23 9-28 19"/>
  </g>
</svg>
